<svg width="580" height="400" viewBox="0 0 580 400" xmlns="http://www.w3.org/2000/svg">
 <!-- Created with Method Draw - http://github.com/duopixel/Method-Draw/ -->
 <g>
  <title>background</title>
  <rect fill="#ffffff" fill-opacity="0" id="canvas_background" height="402" width="582" y="-1" x="-1"/>
  <g display="none" overflow="visible" y="0" x="0" height="100%" width="100%" id="canvasGrid">
   <rect fill="url(#gridpattern)" stroke-width="0" y="0" x="0" height="100%" width="100%"/>
  </g>
 </g>
 <g>
  <title>Layer 1</title>
  <g id="svg_41">
   <ellipse stroke="#fff" ry="165.999993" rx="181.500008" id="svg_1" cy="203.666671" cx="296.999993" stroke-width="1.5" fill="#000"/>
   <g id="svg_40">
    <path id="svg_8" d="m401.36516,115.57449c-1.345291,2.452131 -2.287208,3.739276 -6.86352,5.024793c-0.80867,0.35036 0.268337,1.168287 0.80867,1.050988c4.035978,-1.401303 4.977869,-2.571103 6.86352,-5.142138c0.941917,3.273291 3.094061,5.376713 6.728456,6.66223l0.270154,-0.702234c4.979712,2.338065 8.747354,2.805747 11.976506,2.220789c3.095878,-0.584912 6.728456,-1.050943 9.691088,-0.700583c-1.883834,-1.285632 -2.962632,-2.805724 -3.364241,-4.674571c3.094088,-2.805632 9.150781,-1.75313 12.111596,-3.389031l-0.67358,-1.287123c6.46012,-1.86887 11.978323,-4.907563 19.648696,-3.972291l-12.650086,-7.947816l0.268337,-1.052571c-3.767642,-2.453736 -8.073774,-3.038693 -12.920213,-1.401234c1.615471,-4.091218 0,-8.531214 4.443013,-11.687092c-1.076981,-1.753176 0,-4.206935 1.883834,-6.427724c0.27018,-4.206912 1.613654,-7.947036 4.035978,-11.33609c-3.902705,2.220789 -7.80362,4.206912 -11.841416,5.960891l-0.67358,-1.28632c-1.613654,2.221523 -3.902732,3.8574 -6.99861,4.791044l-0.53849,-1.285517c-4.172885,3.623605 -9.150781,5.492452 -12.246686,10.753448c0.941917,-5.143697 -0.808644,-10.168537 -3.230942,-14.258975l-0.941917,0.818707c-1.748744,-5.025619 -7.93871,-8.29813 -11.841416,-12.388546c1.613654,11.219479 -3.097722,12.621561 -2.960841,18.81627l-1.617288,0.115671c2.289051,6.311985 -0.806853,9.233379 0.67358,13.557613c-3.767642,-1.6359 -8.614108,-0.467659 -11.843259,-3.038716c3.902705,5.376782 5.249866,11.920176 11.843259,16.361686l-0.941917,0.35036c2.422298,2.33646 5.518203,4.324234 10.901316,5.49408z" stroke-width="0" stroke="#fff" fill="#000"/>
    <path id="svg_10" d="m444.698493,167.241158c-1.34529,2.45213 -2.28721,3.73928 -6.86352,5.02479c-0.80867,0.35036 0.26834,1.16829 0.80867,1.05099c4.03598,-1.4013 4.97787,-2.5711 6.86352,-5.14214c0.94192,3.2733 3.09406,5.37672 6.72846,6.66223l0.27015,-0.70223c4.97971,2.33807 8.74735,2.80575 11.97651,2.22079c3.09587,-0.58491 6.72845,-1.05094 9.69108,-0.70058c-1.88383,-1.28563 -2.96263,-2.80573 -3.36424,-4.67457c3.09409,-2.80564 9.15078,-1.75313 12.1116,-3.38903l-0.67358,-1.28713c6.46012,-1.86887 11.97832,-4.90756 19.64869,-3.97229l-12.65008,-7.94781l0.26833,-1.05258c-3.76764,-2.45373 -8.07377,-3.03869 -12.92021,-1.40123c1.61547,-4.09122 0,-8.53121 4.44301,-11.68709c-1.07698,-1.75318 0,-4.20694 1.88384,-6.42773c0.27018,-4.20691 1.61365,-7.94703 4.03598,-11.33609c-3.90271,2.22079 -7.80362,4.20692 -11.84142,5.9609l-0.67358,-1.28632c-1.61365,2.22152 -3.90273,3.8574 -6.99861,4.79104l-0.53849,-1.28552c-4.17289,3.62361 -9.15078,5.49245 -12.24669,10.75345c0.94192,-5.1437 -0.80864,-10.16854 -3.23094,-14.25897l-0.94191,0.8187c-1.74875,-5.02562 -7.93871,-8.29813 -11.84142,-12.38854c1.61365,11.21948 -3.09772,12.62156 -2.96084,18.81627l-1.61729,0.11567c2.28905,6.31198 -0.80685,9.23338 0.67358,13.55761c-3.76764,-1.6359 -8.61411,-0.46766 -11.84326,-3.03872c3.90271,5.37679 5.24987,11.92018 11.84326,16.36169l-0.94192,0.35036c2.4223,2.33646 5.51821,4.32423 10.90132,5.49408z" stroke-width="0" stroke="#fff" fill="#000"/>
    <path id="svg_11" d="m381.36516,95.57449c-1.34529,2.45213 -2.28721,3.73928 -6.86352,5.02479c-0.80867,0.35036 0.26834,1.16829 0.80867,1.05099c4.03598,-1.4013 4.97787,-2.5711 6.86352,-5.14214c0.94192,3.2733 3.09406,5.37672 6.72846,6.66223l0.27015,-0.70223c4.97971,2.33807 8.74735,2.80575 11.97651,2.22079c3.09587,-0.58491 6.72845,-1.05094 9.69108,-0.70058c-1.88383,-1.28563 -2.96263,-2.80573 -3.36424,-4.67457c3.09409,-2.80564 9.15078,-1.75313 12.1116,-3.38903l-0.67358,-1.28713c6.46012,-1.86887 11.97832,-4.90756 19.64869,-3.97229l-12.65008,-7.94781l0.26833,-1.05258c-3.76764,-2.45373 -8.07377,-3.03869 -12.92021,-1.40123c1.61547,-4.09122 0,-8.53121 4.44301,-11.68709c-1.07698,-1.75318 0,-4.20694 1.88384,-6.42773c0.27018,-4.20691 1.61365,-7.94703 4.03598,-11.33609c-3.90271,2.22079 -7.80362,4.20692 -11.84142,5.9609l-0.67358,-1.28632c-1.61365,2.22152 -3.90273,3.8574 -6.99861,4.79104l-0.53849,-1.28552c-4.17289,3.62361 -9.15078,5.49245 -12.24669,10.75345c0.94192,-5.1437 -0.80864,-10.16854 -3.23094,-14.25897l-0.94191,0.8187c-1.74875,-5.02562 -7.93871,-8.29813 -11.84142,-12.38854c1.61365,11.21948 -3.09772,12.62156 -2.96084,18.81627l-1.61729,0.11567c2.28905,6.31198 -0.80685,9.23338 0.67358,13.55761c-3.76764,-1.6359 -8.61411,-0.46766 -11.84326,-3.03872c3.90271,5.37679 5.24987,11.92018 11.84326,16.36169l-0.94192,0.35036c2.4223,2.33646 5.51821,4.32423 10.90132,5.49408z" stroke-width="0" stroke="#fff" fill="#000"/>
    <path id="svg_12" d="m442.198492,185.57449c-1.34529,2.45213 -2.28721,3.73928 -6.86352,5.02479c-0.80867,0.35036 0.26834,1.16829 0.80867,1.05099c4.03598,-1.4013 4.97787,-2.5711 6.86352,-5.14214c0.94192,3.2733 3.09406,5.37672 6.72846,6.66223l0.27015,-0.70223c4.97971,2.33807 8.74735,2.80575 11.97651,2.22079c3.09587,-0.58491 6.72845,-1.05094 9.69108,-0.70058c-1.88383,-1.28563 -2.96263,-2.80573 -3.36424,-4.67457c3.09409,-2.80564 9.15078,-1.75313 12.1116,-3.38903l-0.67358,-1.28713c6.46012,-1.86887 11.97832,-4.90756 19.64869,-3.97229l-12.65008,-7.94781l0.26833,-1.05258c-3.76764,-2.45373 -8.07377,-3.03869 -12.92021,-1.40123c1.61547,-4.09122 0,-8.53121 4.44301,-11.68709c-1.07698,-1.75318 0,-4.20694 1.88384,-6.42773c0.27018,-4.20691 1.61365,-7.94703 4.03598,-11.33609c-3.90271,2.22079 -7.80362,4.20692 -11.84142,5.9609l-0.67358,-1.28632c-1.61365,2.22152 -3.90273,3.8574 -6.99861,4.79104l-0.53849,-1.28552c-4.17289,3.62361 -9.15078,5.49245 -12.24669,10.75345c0.94192,-5.1437 -0.80864,-10.16854 -3.23094,-14.25897l-0.94191,0.8187c-1.74875,-5.02562 -7.93871,-8.29813 -11.84142,-12.38854c1.61365,11.21948 -3.09772,12.62156 -2.96084,18.81627l-1.61729,0.11567c2.28905,6.31198 -0.80685,9.23338 0.67358,13.55761c-3.76764,-1.6359 -8.61411,-0.46766 -11.84326,-3.03872c3.90271,5.37679 5.24987,11.92018 11.84326,16.36169l-0.94192,0.35036c2.4223,2.33646 5.51821,4.32423 10.90132,5.49408z" stroke-width="0" stroke="#fff" fill="#000"/>
    <path transform="rotate(26.916303634643555 473.2291870117187,196.9175262451173) " id="svg_13" d="m455.531828,218.07449c-1.34529,2.45213 -2.28721,3.73928 -6.86352,5.02479c-0.80867,0.35036 0.26834,1.16829 0.80867,1.05099c4.03598,-1.4013 4.97787,-2.5711 6.86352,-5.14214c0.94192,3.2733 3.09406,5.37672 6.72846,6.66223l0.27015,-0.70223c4.97971,2.33807 8.74735,2.80575 11.97651,2.22079c3.09587,-0.58491 6.72845,-1.05094 9.69108,-0.70058c-1.88383,-1.28563 -2.96263,-2.80573 -3.36424,-4.67457c3.09409,-2.80564 9.15078,-1.75313 12.1116,-3.38903l-0.67358,-1.28713c6.46012,-1.86887 11.97832,-4.90756 19.64869,-3.97229l-12.65008,-7.94781l0.26833,-1.05258c-3.76764,-2.45373 -8.07377,-3.03869 -12.92021,-1.40123c1.61547,-4.09122 0,-8.53121 4.44301,-11.68709c-1.07698,-1.75318 0,-4.20694 1.88384,-6.42773c0.27018,-4.20691 1.61365,-7.94703 4.03598,-11.33609c-3.90271,2.22079 -7.80362,4.20692 -11.84142,5.9609l-0.67358,-1.28632c-1.61365,2.22152 -3.90273,3.8574 -6.99861,4.79104l-0.53849,-1.28552c-4.17289,3.62361 -9.15078,5.49245 -12.24669,10.75345c0.94192,-5.1437 -0.80864,-10.16854 -3.23094,-14.25897l-0.94191,0.8187c-1.74875,-5.02562 -7.93871,-8.29813 -11.84142,-12.38854c1.61365,11.21948 -3.09772,12.62156 -2.96084,18.81627l-1.61729,0.11567c2.28905,6.31198 -0.80685,9.23338 0.67358,13.55761c-3.76764,-1.6359 -8.61411,-0.46766 -11.84326,-3.03872c3.90271,5.37679 5.24987,11.92018 11.84326,16.36169l-0.94192,0.35036c2.4223,2.33646 5.51821,4.32423 10.90132,5.49408z" stroke-width="0" stroke="#fff" fill="#000"/>
    <path id="svg_14" d="m432.198494,238.07449c-1.34529,2.45213 -2.28721,3.73928 -6.86352,5.02479c-0.80867,0.35036 0.26834,1.16829 0.80867,1.05099c4.03598,-1.4013 4.97787,-2.5711 6.86352,-5.14214c0.94192,3.2733 3.09406,5.37672 6.72846,6.66223l0.27015,-0.70223c4.97971,2.33807 8.74735,2.80575 11.97651,2.22079c3.09587,-0.58491 6.72845,-1.05094 9.69108,-0.70058c-1.88383,-1.28563 -2.96263,-2.80573 -3.36424,-4.67457c3.09409,-2.80564 9.15078,-1.75313 12.1116,-3.38903l-0.67358,-1.28713c6.46012,-1.86887 11.97832,-4.90756 19.64869,-3.97229l-12.65008,-7.94781l0.26833,-1.05258c-3.76764,-2.45373 -8.07377,-3.03869 -12.92021,-1.40123c1.61547,-4.09122 0,-8.53121 4.44301,-11.68709c-1.07698,-1.75318 0,-4.20694 1.88384,-6.42773c0.27018,-4.20691 1.61365,-7.94703 4.03598,-11.33609c-3.90271,2.22079 -7.80362,4.20692 -11.84142,5.9609l-0.67358,-1.28632c-1.61365,2.22152 -3.90273,3.8574 -6.99861,4.79104l-0.53849,-1.28552c-4.17289,3.62361 -9.15078,5.49245 -12.24669,10.75345c0.94192,-5.1437 -0.80864,-10.16854 -3.23094,-14.25897l-0.94191,0.8187c-1.74875,-5.02562 -7.93871,-8.29813 -11.84142,-12.38854c1.61365,11.21948 -3.09772,12.62156 -2.96084,18.81627l-1.61729,0.11567c2.28905,6.31198 -0.80685,9.23338 0.67358,13.55761c-3.76764,-1.6359 -8.61411,-0.46766 -11.84326,-3.03872c3.90271,5.37679 5.24987,11.92018 11.84326,16.36169l-0.94192,0.35036c2.4223,2.33646 5.51821,4.32423 10.90132,5.49408z" stroke-width="0" stroke="#fff" fill="#000"/>
    <path id="svg_15" d="m427.198494,272.241162c-1.34529,2.45213 -2.28721,3.73928 -6.86352,5.02479c-0.80867,0.35036 0.26834,1.16829 0.80867,1.05099c4.03598,-1.4013 4.97787,-2.5711 6.86352,-5.14214c0.94192,3.2733 3.09406,5.37672 6.72846,6.66223l0.27015,-0.70223c4.97971,2.33807 8.74735,2.80575 11.97651,2.22079c3.09587,-0.58491 6.72845,-1.05094 9.69108,-0.70058c-1.88383,-1.28563 -2.96263,-2.80573 -3.36424,-4.67457c3.09409,-2.80564 9.15078,-1.75313 12.1116,-3.38903l-0.67358,-1.28713c6.46012,-1.86887 11.97832,-4.90756 19.64869,-3.97229l-12.65008,-7.94781l0.26833,-1.05258c-3.76764,-2.45373 -8.07377,-3.03869 -12.92021,-1.40123c1.61547,-4.09122 0,-8.53121 4.44301,-11.68709c-1.07698,-1.75318 0,-4.20694 1.88384,-6.42773c0.27018,-4.20691 1.61365,-7.94703 4.03598,-11.33609c-3.90271,2.22079 -7.80362,4.20692 -11.84142,5.9609l-0.67358,-1.28632c-1.61365,2.22152 -3.90273,3.8574 -6.99861,4.79104l-0.53849,-1.28552c-4.17289,3.62361 -9.15078,5.49245 -12.24669,10.75345c0.94192,-5.1437 -0.80864,-10.16854 -3.23094,-14.25897l-0.94191,0.8187c-1.74875,-5.02562 -7.93871,-8.29813 -11.84142,-12.38854c1.61365,11.21948 -3.09772,12.62156 -2.96084,18.81627l-1.61729,0.11567c2.28905,6.31198 -0.80685,9.23338 0.67358,13.55761c-3.76764,-1.6359 -8.61411,-0.46766 -11.84326,-3.03872c3.90271,5.37679 5.24987,11.92018 11.84326,16.36169l-0.94192,0.35036c2.4223,2.33646 5.51821,4.32423 10.90132,5.49408z" stroke-width="0" stroke="#fff" fill="#000"/>
    <path transform="rotate(90.47149658203125 466.56250000000006,261.91754150390625) " id="svg_16" d="m448.865158,283.074494c-1.34529,2.45213 -2.28721,3.73928 -6.86352,5.02479c-0.80867,0.35036 0.26834,1.16829 0.80867,1.05099c4.03598,-1.4013 4.97787,-2.5711 6.86352,-5.14214c0.94192,3.2733 3.09406,5.37672 6.72846,6.66223l0.27015,-0.70223c4.97971,2.33807 8.74735,2.80575 11.97651,2.22079c3.09587,-0.58491 6.72845,-1.05094 9.69108,-0.70058c-1.88383,-1.28563 -2.96263,-2.80573 -3.36424,-4.67457c3.09409,-2.80564 9.15078,-1.75313 12.1116,-3.38903l-0.67358,-1.28713c6.46012,-1.86887 11.97832,-4.90756 19.64869,-3.97229l-12.65008,-7.94781l0.26833,-1.05258c-3.76764,-2.45373 -8.07377,-3.03869 -12.92021,-1.40123c1.61547,-4.09122 0,-8.53121 4.44301,-11.68709c-1.07698,-1.75318 0,-4.20694 1.88384,-6.42773c0.27018,-4.20691 1.61365,-7.94703 4.03598,-11.33609c-3.90271,2.22079 -7.80362,4.20692 -11.84142,5.9609l-0.67358,-1.28632c-1.61365,2.22152 -3.90273,3.8574 -6.99861,4.79104l-0.53849,-1.28552c-4.17289,3.62361 -9.15078,5.49245 -12.24669,10.75345c0.94192,-5.1437 -0.80864,-10.16854 -3.23094,-14.25897l-0.94191,0.8187c-1.74875,-5.02562 -7.93871,-8.29813 -11.84142,-12.38854c1.61365,11.21948 -3.09772,12.62156 -2.96084,18.81627l-1.61729,0.11567c2.28905,6.31198 -0.80685,9.23338 0.67358,13.55761c-3.76764,-1.6359 -8.61411,-0.46766 -11.84326,-3.03872c3.90271,5.37679 5.24987,11.92018 11.84326,16.36169l-0.94192,0.35036c2.4223,2.33646 5.51821,4.32423 10.90132,5.49408z" stroke-width="0" stroke="#fff" fill="#000"/>
    <path id="svg_17" d="m401.36516,309.741162c-1.34529,2.45213 -2.28721,3.73928 -6.86352,5.02479c-0.80867,0.35036 0.26834,1.16829 0.80867,1.05099c4.03598,-1.4013 4.97787,-2.5711 6.86352,-5.14214c0.94192,3.2733 3.09406,5.37672 6.72846,6.66223l0.27015,-0.70223c4.97971,2.33807 8.74735,2.80575 11.97651,2.22079c3.09587,-0.58491 6.72845,-1.05094 9.69108,-0.70058c-1.88383,-1.28563 -2.96263,-2.80573 -3.36424,-4.67457c3.09409,-2.80564 9.15078,-1.75313 12.1116,-3.38903l-0.67358,-1.28713c6.46012,-1.86887 11.97832,-4.90756 19.64869,-3.97229l-12.65008,-7.94781l0.26833,-1.05258c-3.76764,-2.45373 -8.07377,-3.03869 -12.92021,-1.40123c1.61547,-4.09122 0,-8.53121 4.44301,-11.68709c-1.07698,-1.75318 0,-4.20694 1.88384,-6.42773c0.27018,-4.20691 1.61365,-7.94703 4.03598,-11.33609c-3.90271,2.22079 -7.80362,4.20692 -11.84142,5.9609l-0.67358,-1.28632c-1.61365,2.22152 -3.90273,3.8574 -6.99861,4.79104l-0.53849,-1.28552c-4.17289,3.62361 -9.15078,5.49245 -12.24669,10.75345c0.94192,-5.1437 -0.80864,-10.16854 -3.23094,-14.25897l-0.94191,0.8187c-1.74875,-5.02562 -7.93871,-8.29813 -11.84142,-12.38854c1.61365,11.21948 -3.09772,12.62156 -2.96084,18.81627l-1.61729,0.11567c2.28905,6.31198 -0.80685,9.23338 0.67358,13.55761c-3.76764,-1.6359 -8.61411,-0.46766 -11.84326,-3.03872c3.90271,5.37679 5.24987,11.92018 11.84326,16.36169l-0.94192,0.35036c2.4223,2.33646 5.51821,4.32423 10.90132,5.49408z" stroke-width="0" stroke="#fff" fill="#000"/>
    <path id="svg_18" d="m381.36516,330.57449c-1.34529,2.45213 -2.28721,3.73928 -6.86352,5.02479c-0.80867,0.35036 0.26834,1.16829 0.80867,1.05099c4.03598,-1.4013 4.97787,-2.5711 6.86352,-5.14214c0.94192,3.2733 3.09406,5.37672 6.72846,6.66223l0.27015,-0.70223c4.97971,2.33807 8.74735,2.80575 11.97651,2.22079c3.09587,-0.58491 6.72845,-1.05094 9.69108,-0.70058c-1.88383,-1.28563 -2.96263,-2.80573 -3.36424,-4.67457c3.09409,-2.80564 9.15078,-1.75313 12.1116,-3.38903l-0.67358,-1.28713c6.46012,-1.86887 11.97832,-4.90756 19.64869,-3.97229l-12.65008,-7.94781l0.26833,-1.05258c-3.76764,-2.45373 -8.07377,-3.03869 -12.92021,-1.40123c1.61547,-4.09122 0,-8.53121 4.44301,-11.68709c-1.07698,-1.75318 0,-4.20694 1.88384,-6.42773c0.27018,-4.20691 1.61365,-7.94703 4.03598,-11.33609c-3.90271,2.22079 -7.80362,4.20692 -11.84142,5.9609l-0.67358,-1.28632c-1.61365,2.22152 -3.90273,3.8574 -6.99861,4.79104l-0.53849,-1.28552c-4.17289,3.62361 -9.15078,5.49245 -12.24669,10.75345c0.94192,-5.1437 -0.80864,-10.16854 -3.23094,-14.25897l-0.94191,0.8187c-1.74875,-5.02562 -7.93871,-8.29813 -11.84142,-12.38854c1.61365,11.21948 -3.09772,12.62156 -2.96084,18.81627l-1.61729,0.11567c2.28905,6.31198 -0.80685,9.23338 0.67358,13.55761c-3.76764,-1.6359 -8.61411,-0.46766 -11.84326,-3.03872c3.90271,5.37679 5.24987,11.92018 11.84326,16.36169l-0.94192,0.35036c2.4223,2.33646 5.51821,4.32423 10.90132,5.49408z" stroke-width="0" stroke="#fff" fill="#000"/>
    <path id="svg_19" d="m348.86516,352.241162c-1.34529,2.45213 -2.28721,3.73928 -6.86352,5.02479c-0.80867,0.35036 0.26834,1.16829 0.80867,1.05099c4.03598,-1.4013 4.97787,-2.5711 6.86352,-5.14214c0.94192,3.2733 3.09406,5.37672 6.72846,6.66223l0.27015,-0.70223c4.97971,2.33807 8.74735,2.80575 11.97651,2.22079c3.09587,-0.58491 6.72845,-1.05094 9.69108,-0.70058c-1.88383,-1.28563 -2.96263,-2.80573 -3.36424,-4.67457c3.09409,-2.80564 9.15078,-1.75313 12.1116,-3.38903l-0.67358,-1.28713c6.46012,-1.86887 11.97832,-4.90756 19.64869,-3.97229l-12.65008,-7.94781l0.26833,-1.05258c-3.76764,-2.45373 -8.07377,-3.03869 -12.92021,-1.40123c1.61547,-4.09122 0,-8.53121 4.44301,-11.68709c-1.07698,-1.75318 0,-4.20694 1.88384,-6.42773c0.27018,-4.20691 1.61365,-7.94703 4.03598,-11.33609c-3.90271,2.22079 -7.80362,4.20692 -11.84142,5.9609l-0.67358,-1.28632c-1.61365,2.22152 -3.90273,3.8574 -6.99861,4.79104l-0.53849,-1.28552c-4.17289,3.62361 -9.15078,5.49245 -12.24669,10.75345c0.94192,-5.1437 -0.80864,-10.16854 -3.23094,-14.25897l-0.94191,0.8187c-1.74875,-5.02562 -7.93871,-8.29813 -11.84142,-12.38854c1.61365,11.21948 -3.09772,12.62156 -2.96084,18.81627l-1.61729,0.11567c2.28905,6.31198 -0.80685,9.23338 0.67358,13.55761c-3.76764,-1.6359 -8.61411,-0.46766 -11.84326,-3.03872c3.90271,5.37679 5.24987,11.92018 11.84326,16.36169l-0.94192,0.35036c2.4223,2.33646 5.51821,4.32423 10.90132,5.49408z" stroke-width="0" stroke="#fff" fill="#000"/>
    <path transform="rotate(33.63274002075195 338.22915649414045,341.91754150390636) " id="svg_20" d="m320.531824,363.074485c-1.34529,2.45213 -2.28721,3.73928 -6.86352,5.02479c-0.80867,0.35036 0.26834,1.16829 0.80867,1.05099c4.03598,-1.4013 4.97787,-2.5711 6.86352,-5.14214c0.94192,3.2733 3.09406,5.37672 6.72846,6.66223l0.27015,-0.70223c4.97971,2.33807 8.74735,2.80575 11.97651,2.22079c3.09587,-0.58491 6.72845,-1.05094 9.69108,-0.70058c-1.88383,-1.28563 -2.96263,-2.80573 -3.36424,-4.67457c3.09409,-2.80564 9.15078,-1.75313 12.1116,-3.38903l-0.67358,-1.28713c6.46012,-1.86887 11.97832,-4.90756 19.64869,-3.97229l-12.65008,-7.94781l0.26833,-1.05258c-3.76764,-2.45373 -8.07377,-3.03869 -12.92021,-1.40123c1.61547,-4.09122 0,-8.53121 4.44301,-11.68709c-1.07698,-1.75318 0,-4.20694 1.88384,-6.42773c0.27018,-4.20691 1.61365,-7.94703 4.03598,-11.33609c-3.90271,2.22079 -7.80362,4.20692 -11.84142,5.9609l-0.67358,-1.28632c-1.61365,2.22152 -3.90273,3.8574 -6.99861,4.79104l-0.53849,-1.28552c-4.17289,3.62361 -9.15078,5.49245 -12.24669,10.75345c0.94192,-5.1437 -0.80864,-10.16854 -3.23094,-14.25897l-0.94191,0.8187c-1.74875,-5.02562 -7.93871,-8.29813 -11.84142,-12.38854c1.61365,11.21948 -3.09772,12.62156 -2.96084,18.81627l-1.61729,0.11567c2.28905,6.31198 -0.80685,9.23338 0.67358,13.55761c-3.76764,-1.6359 -8.61411,-0.46766 -11.84326,-3.03872c3.90271,5.37679 5.24987,11.92018 11.84326,16.36169l-0.94192,0.35036c2.4223,2.33646 5.51821,4.32423 10.90132,5.49408z" stroke-width="0" stroke="#fff" fill="#000"/>
    <path transform="rotate(54.502601623535156 454.0625,128.58419799804688) " id="svg_21" d="m436.36516,149.741158c-1.34529,2.45213 -2.28721,3.73928 -6.86352,5.02479c-0.80867,0.35036 0.26834,1.16829 0.80867,1.05099c4.03598,-1.4013 4.97787,-2.5711 6.86352,-5.14214c0.94192,3.2733 3.09406,5.37672 6.72846,6.66223l0.27015,-0.70223c4.97971,2.33807 8.74735,2.80575 11.97651,2.22079c3.09587,-0.58491 6.72845,-1.05094 9.69108,-0.70058c-1.88383,-1.28563 -2.96263,-2.80573 -3.36424,-4.67457c3.09409,-2.80564 9.15078,-1.75313 12.1116,-3.38903l-0.67358,-1.28713c6.46012,-1.86887 11.97832,-4.90756 19.64869,-3.97229l-12.65008,-7.94781l0.26833,-1.05258c-3.76764,-2.45373 -8.07377,-3.03869 -12.92021,-1.40123c1.61547,-4.09122 0,-8.53121 4.44301,-11.68709c-1.07698,-1.75318 0,-4.20694 1.88384,-6.42773c0.27018,-4.20691 1.61365,-7.94703 4.03598,-11.33609c-3.90271,2.22079 -7.80362,4.20692 -11.84142,5.9609l-0.67358,-1.28632c-1.61365,2.22152 -3.90273,3.8574 -6.99861,4.79104l-0.53849,-1.28552c-4.17289,3.62361 -9.15078,5.49245 -12.24669,10.75345c0.94192,-5.1437 -0.80864,-10.16854 -3.23094,-14.25897l-0.94191,0.8187c-1.74875,-5.02562 -7.93871,-8.29813 -11.84142,-12.38854c1.61365,11.21948 -3.09772,12.62156 -2.96084,18.81627l-1.61729,0.11567c2.28905,6.31198 -0.80685,9.23338 0.67358,13.55761c-3.76764,-1.6359 -8.61411,-0.46766 -11.84326,-3.03872c3.90271,5.37679 5.24987,11.92018 11.84326,16.36169l-0.94192,0.35036c2.4223,2.33646 5.51821,4.32423 10.90132,5.49408z" stroke-width="0" stroke="#fff" fill="#000"/>
    <path id="svg_22" d="m435.531828,153.07449c-1.34529,2.45213 -2.28721,3.73928 -6.86352,5.02479c-0.80867,0.35036 0.26834,1.16829 0.80867,1.05099c4.03598,-1.4013 4.97787,-2.5711 6.86352,-5.14214c0.94192,3.2733 3.09406,5.37672 6.72846,6.66223l0.27015,-0.70223c4.97971,2.33807 8.74735,2.80575 11.97651,2.22079c3.09587,-0.58491 6.72845,-1.05094 9.69108,-0.70058c-1.88383,-1.28563 -2.96263,-2.80573 -3.36424,-4.67457c3.09409,-2.80564 9.15078,-1.75313 12.1116,-3.38903l-0.67358,-1.28713c6.46012,-1.86887 11.97832,-4.90756 19.64869,-3.97229l-12.65008,-7.94781l0.26833,-1.05258c-3.76764,-2.45373 -8.07377,-3.03869 -12.92021,-1.40123c1.61547,-4.09122 0,-8.53121 4.44301,-11.68709c-1.07698,-1.75318 0,-4.20694 1.88384,-6.42773c0.27018,-4.20691 1.61365,-7.94703 4.03598,-11.33609c-3.90271,2.22079 -7.80362,4.20692 -11.84142,5.9609l-0.67358,-1.28632c-1.61365,2.22152 -3.90273,3.8574 -6.99861,4.79104l-0.53849,-1.28552c-4.17289,3.62361 -9.15078,5.49245 -12.24669,10.75345c0.94192,-5.1437 -0.80864,-10.16854 -3.23094,-14.25897l-0.94191,0.8187c-1.74875,-5.02562 -7.93871,-8.29813 -11.84142,-12.38854c1.61365,11.21948 -3.09772,12.62156 -2.96084,18.81627l-1.61729,0.11567c2.28905,6.31198 -0.80685,9.23338 0.67358,13.55761c-3.76764,-1.6359 -8.61411,-0.46766 -11.84326,-3.03872c3.90271,5.37679 5.24987,11.92018 11.84326,16.36169l-0.94192,0.35036c2.4223,2.33646 5.51821,4.32423 10.90132,5.49408z" stroke-width="0" stroke="#fff" fill="#000"/>
    <path id="svg_23" d="m401.36516,115.57449c-1.34529,2.45213 -2.28721,3.73928 -6.86352,5.02479c-0.80867,0.35036 0.26834,1.16829 0.80867,1.05099c4.03598,-1.4013 4.97787,-2.5711 6.86352,-5.14214c0.94192,3.2733 3.09406,5.37672 6.72846,6.66223l0.27015,-0.70223c4.97971,2.33807 8.74735,2.80575 11.97651,2.22079c3.09587,-0.58491 6.72845,-1.05094 9.69108,-0.70058c-1.88383,-1.28563 -2.96263,-2.80573 -3.36424,-4.67457c3.09409,-2.80564 9.15078,-1.75313 12.1116,-3.38903l-0.67358,-1.28713c6.46012,-1.86887 11.97832,-4.90756 19.64869,-3.97229l-12.65008,-7.94781l0.26833,-1.05258c-3.76764,-2.45373 -8.07377,-3.03869 -12.92021,-1.40123c1.61547,-4.09122 0,-8.53121 4.44301,-11.68709c-1.07698,-1.75318 0,-4.20694 1.88384,-6.42773c0.27018,-4.20691 1.61365,-7.94703 4.03598,-11.33609c-3.90271,2.22079 -7.80362,4.20692 -11.84142,5.9609l-0.67358,-1.28632c-1.61365,2.22152 -3.90273,3.8574 -6.99861,4.79104l-0.53849,-1.28552c-4.17289,3.62361 -9.15078,5.49245 -12.24669,10.75345c0.94192,-5.1437 -0.80864,-10.16854 -3.23094,-14.25897l-0.94191,0.8187c-1.74875,-5.02562 -7.93871,-8.29813 -11.84142,-12.38854c1.61365,11.21948 -3.09772,12.62156 -2.96084,18.81627l-1.61729,0.11567c2.28905,6.31198 -0.80685,9.23338 0.67358,13.55761c-3.76764,-1.6359 -8.61411,-0.46766 -11.84326,-3.03872c3.90271,5.37679 5.24987,11.92018 11.84326,16.36169l-0.94192,0.35036c2.4223,2.33646 5.51821,4.32423 10.90132,5.49408z" stroke-width="0" stroke="#fff" fill="#000"/>
    <path transform="rotate(-134.44065856933594 163.22915649414062,95.25086212158203) " id="svg_24" d="m145.53182,116.407823c-1.34529,2.45213 -2.28721,3.73928 -6.86352,5.02479c-0.80867,0.35036 0.26834,1.16829 0.80867,1.05099c4.03598,-1.4013 4.97787,-2.5711 6.86352,-5.14214c0.94192,3.2733 3.09406,5.37672 6.72846,6.66223l0.27015,-0.70223c4.97971,2.33807 8.74735,2.80575 11.97651,2.22079c3.09587,-0.58491 6.72845,-1.05094 9.69108,-0.70058c-1.88383,-1.28563 -2.96263,-2.80573 -3.36424,-4.67457c3.09409,-2.80564 9.15078,-1.75313 12.1116,-3.38903l-0.67358,-1.28713c6.46012,-1.86887 11.97832,-4.90756 19.64869,-3.97229l-12.65008,-7.94781l0.26833,-1.05258c-3.76764,-2.45373 -8.07377,-3.03869 -12.92021,-1.40123c1.61547,-4.09122 0,-8.53121 4.44301,-11.68709c-1.07698,-1.75318 0,-4.20694 1.88384,-6.42773c0.27018,-4.20691 1.61365,-7.94703 4.03598,-11.33609c-3.90271,2.22079 -7.80362,4.20692 -11.84142,5.9609l-0.67358,-1.28632c-1.61365,2.22152 -3.90273,3.8574 -6.99861,4.79104l-0.53849,-1.28552c-4.17289,3.62361 -9.15078,5.49245 -12.24669,10.75345c0.94192,-5.1437 -0.80864,-10.16854 -3.23094,-14.25897l-0.94191,0.8187c-1.74875,-5.02562 -7.93871,-8.29813 -11.84142,-12.38854c1.61365,11.21948 -3.09772,12.62156 -2.96084,18.81627l-1.61729,0.11567c2.28905,6.31198 -0.80685,9.23338 0.67358,13.55761c-3.76764,-1.6359 -8.61411,-0.46766 -11.84326,-3.03872c3.90271,5.37679 5.24987,11.92018 11.84326,16.36169l-0.94192,0.35036c2.4223,2.33646 5.51821,4.32423 10.90132,5.49408z" stroke-width="0" stroke="#fff" fill="#000"/>
    <path transform="rotate(-97.06968688964844 191.5625152587891,77.75086212158203) " id="svg_25" d="m173.865165,98.907823c-1.34529,2.45213 -2.28721,3.73928 -6.86352,5.02479c-0.80867,0.35036 0.26834,1.16829 0.80867,1.05099c4.03598,-1.4013 4.97787,-2.5711 6.86352,-5.14214c0.94192,3.2733 3.09406,5.37672 6.72846,6.66223l0.27015,-0.70223c4.97971,2.33807 8.74735,2.80575 11.97651,2.22079c3.09587,-0.58491 6.72845,-1.05094 9.69108,-0.70058c-1.88383,-1.28563 -2.96263,-2.80573 -3.36424,-4.67457c3.09409,-2.80564 9.15078,-1.75313 12.1116,-3.38903l-0.67358,-1.28713c6.46012,-1.86887 11.97832,-4.90756 19.64869,-3.97229l-12.65008,-7.94781l0.26833,-1.05258c-3.76764,-2.45373 -8.07377,-3.03869 -12.92021,-1.40123c1.61547,-4.09122 0,-8.53121 4.44301,-11.68709c-1.07698,-1.75318 0,-4.20694 1.88384,-6.42773c0.27018,-4.20691 1.61365,-7.94703 4.03598,-11.33609c-3.90271,2.22079 -7.80362,4.20692 -11.84142,5.9609l-0.67358,-1.28632c-1.61365,2.22152 -3.90273,3.8574 -6.99861,4.79104l-0.53849,-1.28552c-4.17289,3.62361 -9.15078,5.49245 -12.24669,10.75345c0.94192,-5.1437 -0.80864,-10.16854 -3.23094,-14.25897l-0.94191,0.8187c-1.74875,-5.02562 -7.93871,-8.29813 -11.84142,-12.38854c1.61365,11.21948 -3.09772,12.62156 -2.96084,18.81627l-1.61729,0.11567c2.28905,6.31198 -0.80685,9.23338 0.67358,13.55761c-3.76764,-1.6359 -8.61411,-0.46766 -11.84326,-3.03872c3.90271,5.37679 5.24987,11.92018 11.84326,16.36169l-0.94192,0.35036c2.4223,2.33646 5.51821,4.32423 10.90132,5.49408z" stroke-width="0" stroke="#fff" fill="#000"/>
    <path transform="rotate(-129.8037872314453 149.8958282470703,121.91752624511717) " id="svg_26" d="m132.198493,143.07449c-1.34529,2.45213 -2.28721,3.73928 -6.86352,5.02479c-0.80867,0.35036 0.26834,1.16829 0.80867,1.05099c4.03598,-1.4013 4.97787,-2.5711 6.86352,-5.14214c0.94192,3.2733 3.09406,5.37672 6.72846,6.66223l0.27015,-0.70223c4.97971,2.33807 8.74735,2.80575 11.97651,2.22079c3.09587,-0.58491 6.72845,-1.05094 9.69108,-0.70058c-1.88383,-1.28563 -2.96263,-2.80573 -3.36424,-4.67457c3.09409,-2.80564 9.15078,-1.75313 12.1116,-3.38903l-0.67358,-1.28713c6.46012,-1.86887 11.97832,-4.90756 19.64869,-3.97229l-12.65008,-7.94781l0.26833,-1.05258c-3.76764,-2.45373 -8.07377,-3.03869 -12.92021,-1.40123c1.61547,-4.09122 0,-8.53121 4.44301,-11.68709c-1.07698,-1.75318 0,-4.20694 1.88384,-6.42773c0.27018,-4.20691 1.61365,-7.94703 4.03598,-11.33609c-3.90271,2.22079 -7.80362,4.20692 -11.84142,5.9609l-0.67358,-1.28632c-1.61365,2.22152 -3.90273,3.8574 -6.99861,4.79104l-0.53849,-1.28552c-4.17289,3.62361 -9.15078,5.49245 -12.24669,10.75345c0.94192,-5.1437 -0.80864,-10.16854 -3.23094,-14.25897l-0.94191,0.8187c-1.74875,-5.02562 -7.93871,-8.29813 -11.84142,-12.38854c1.61365,11.21948 -3.09772,12.62156 -2.96084,18.81627l-1.61729,0.11567c2.28905,6.31198 -0.80685,9.23338 0.67358,13.55761c-3.76764,-1.6359 -8.61411,-0.46766 -11.84326,-3.03872c3.90271,5.37679 5.24987,11.92018 11.84326,16.36169l-0.94192,0.35036c2.4223,2.33646 5.51821,4.32423 10.90132,5.49408z" stroke-width="0" stroke="#fff" fill="#000"/>
    <path transform="rotate(-118.90576934814453 116.56249237060545,162.7508544921875) " id="svg_27" d="m98.86515,183.907823c-1.34529,2.45213 -2.28721,3.73928 -6.86352,5.02479c-0.80867,0.35036 0.26834,1.16829 0.80867,1.05099c4.03598,-1.4013 4.97787,-2.5711 6.86352,-5.14214c0.94192,3.2733 3.09406,5.37672 6.72846,6.66223l0.27015,-0.70223c4.97971,2.33807 8.74735,2.80575 11.97651,2.22079c3.09587,-0.58491 6.72845,-1.05094 9.69108,-0.70058c-1.88383,-1.28563 -2.96263,-2.80573 -3.36424,-4.67457c3.09409,-2.80564 9.15078,-1.75313 12.1116,-3.38903l-0.67358,-1.28713c6.46012,-1.86887 11.97832,-4.90756 19.64869,-3.97229l-12.65008,-7.94781l0.26833,-1.05258c-3.76764,-2.45373 -8.07377,-3.03869 -12.92021,-1.40123c1.61547,-4.09122 0,-8.53121 4.44301,-11.68709c-1.07698,-1.75318 0,-4.20694 1.88384,-6.42773c0.27018,-4.20691 1.61365,-7.94703 4.03598,-11.33609c-3.90271,2.22079 -7.80362,4.20692 -11.84142,5.9609l-0.67358,-1.28632c-1.61365,2.22152 -3.90273,3.8574 -6.99861,4.79104l-0.53849,-1.28552c-4.17289,3.62361 -9.15078,5.49245 -12.24669,10.75345c0.94192,-5.1437 -0.80864,-10.16854 -3.23094,-14.25897l-0.94191,0.8187c-1.74875,-5.02562 -7.93871,-8.29813 -11.84142,-12.38854c1.61365,11.21948 -3.09772,12.62156 -2.96084,18.81627l-1.61729,0.11567c2.28905,6.31198 -0.80685,9.23338 0.67358,13.55761c-3.76764,-1.6359 -8.61411,-0.46766 -11.84326,-3.03872c3.90271,5.37679 5.24987,11.92018 11.84326,16.36169l-0.94192,0.35036c2.4223,2.33646 5.51821,4.32423 10.90132,5.49408z" stroke-width="0" stroke="#fff" fill="#000"/>
    <path transform="rotate(-134.0597686767578 142.39582824707028,136.91752624511716) " id="svg_28" d="m124.698483,158.07449c-1.34529,2.45213 -2.28721,3.73928 -6.86352,5.02479c-0.80867,0.35036 0.26834,1.16829 0.80867,1.05099c4.03598,-1.4013 4.97787,-2.5711 6.86352,-5.14214c0.94192,3.2733 3.09406,5.37672 6.72846,6.66223l0.27015,-0.70223c4.97971,2.33807 8.74735,2.80575 11.97651,2.22079c3.09587,-0.58491 6.72845,-1.05094 9.69108,-0.70058c-1.88383,-1.28563 -2.96263,-2.80573 -3.36424,-4.67457c3.09409,-2.80564 9.15078,-1.75313 12.1116,-3.38903l-0.67358,-1.28713c6.46012,-1.86887 11.97832,-4.90756 19.64869,-3.97229l-12.65008,-7.94781l0.26833,-1.05258c-3.76764,-2.45373 -8.07377,-3.03869 -12.92021,-1.40123c1.61547,-4.09122 0,-8.53121 4.44301,-11.68709c-1.07698,-1.75318 0,-4.20694 1.88384,-6.42773c0.27018,-4.20691 1.61365,-7.94703 4.03598,-11.33609c-3.90271,2.22079 -7.80362,4.20692 -11.84142,5.9609l-0.67358,-1.28632c-1.61365,2.22152 -3.90273,3.8574 -6.99861,4.79104l-0.53849,-1.28552c-4.17289,3.62361 -9.15078,5.49245 -12.24669,10.75345c0.94192,-5.1437 -0.80864,-10.16854 -3.23094,-14.25897l-0.94191,0.8187c-1.74875,-5.02562 -7.93871,-8.29813 -11.84142,-12.38854c1.61365,11.21948 -3.09772,12.62156 -2.96084,18.81627l-1.61729,0.11567c2.28905,6.31198 -0.80685,9.23338 0.67358,13.55761c-3.76764,-1.6359 -8.61411,-0.46766 -11.84326,-3.03872c3.90271,5.37679 5.24987,11.92018 11.84326,16.36169l-0.94192,0.35036c2.4223,2.33646 5.51821,4.32423 10.90132,5.49408z" stroke-width="0" stroke="#fff" fill="#000"/>
    <path transform="rotate(-145.68209838867188 102.39584350585938,199.4175262451172) " id="svg_29" d="m84.698504,220.57449c-1.34529,2.45213 -2.28721,3.73928 -6.86352,5.02479c-0.80867,0.35036 0.26834,1.16829 0.80867,1.05099c4.03598,-1.4013 4.97787,-2.5711 6.86352,-5.14214c0.94192,3.2733 3.09406,5.37672 6.72846,6.66223l0.27015,-0.70223c4.97971,2.33807 8.74735,2.80575 11.97651,2.22079c3.09587,-0.58491 6.72845,-1.05094 9.69108,-0.70058c-1.88383,-1.28563 -2.96263,-2.80573 -3.36424,-4.67457c3.09409,-2.80564 9.15078,-1.75313 12.1116,-3.38903l-0.67358,-1.28713c6.46012,-1.86887 11.97832,-4.90756 19.64869,-3.97229l-12.65008,-7.94781l0.26833,-1.05258c-3.76764,-2.45373 -8.07377,-3.03869 -12.92021,-1.40123c1.61547,-4.09122 0,-8.53121 4.44301,-11.68709c-1.07698,-1.75318 0,-4.20694 1.88384,-6.42773c0.27018,-4.20691 1.61365,-7.94703 4.03598,-11.33609c-3.90271,2.22079 -7.80362,4.20692 -11.84142,5.9609l-0.67358,-1.28632c-1.61365,2.22152 -3.90273,3.8574 -6.99861,4.79104l-0.53849,-1.28552c-4.17289,3.62361 -9.15078,5.49245 -12.24669,10.75345c0.94192,-5.1437 -0.80864,-10.16854 -3.23094,-14.25897l-0.94191,0.8187c-1.74875,-5.02562 -7.93871,-8.29813 -11.84142,-12.38854c1.61365,11.21948 -3.09772,12.62156 -2.96084,18.81627l-1.61729,0.11567c2.28905,6.31198 -0.80685,9.23338 0.67358,13.55761c-3.76764,-1.6359 -8.61411,-0.46766 -11.84326,-3.03872c3.90271,5.37679 5.24987,11.92018 11.84326,16.36169l-0.94192,0.35036c2.4223,2.33646 5.51821,4.32423 10.90132,5.49408z" stroke-width="0" stroke="#fff" fill="#000"/>
    <path transform="rotate(-145.83148193359375 116.5625,233.58419799804685) " id="svg_30" d="m98.86516,254.741162c-1.34529,2.45213 -2.28721,3.73928 -6.86352,5.02479c-0.80867,0.35036 0.26834,1.16829 0.80867,1.05099c4.03598,-1.4013 4.97787,-2.5711 6.86352,-5.14214c0.94192,3.2733 3.09406,5.37672 6.72846,6.66223l0.27015,-0.70223c4.97971,2.33807 8.74735,2.80575 11.97651,2.22079c3.09587,-0.58491 6.72845,-1.05094 9.69108,-0.70058c-1.88383,-1.28563 -2.96263,-2.80573 -3.36424,-4.67457c3.09409,-2.80564 9.15078,-1.75313 12.1116,-3.38903l-0.67358,-1.28713c6.46012,-1.86887 11.97832,-4.90756 19.64869,-3.97229l-12.65008,-7.94781l0.26833,-1.05258c-3.76764,-2.45373 -8.07377,-3.03869 -12.92021,-1.40123c1.61547,-4.09122 0,-8.53121 4.44301,-11.68709c-1.07698,-1.75318 0,-4.20694 1.88384,-6.42773c0.27018,-4.20691 1.61365,-7.94703 4.03598,-11.33609c-3.90271,2.22079 -7.80362,4.20692 -11.84142,5.9609l-0.67358,-1.28632c-1.61365,2.22152 -3.90273,3.8574 -6.99861,4.79104l-0.53849,-1.28552c-4.17289,3.62361 -9.15078,5.49245 -12.24669,10.75345c0.94192,-5.1437 -0.80864,-10.16854 -3.23094,-14.25897l-0.94191,0.8187c-1.74875,-5.02562 -7.93871,-8.29813 -11.84142,-12.38854c1.61365,11.21948 -3.09772,12.62156 -2.96084,18.81627l-1.61729,0.11567c2.28905,6.31198 -0.80685,9.23338 0.67358,13.55761c-3.76764,-1.6359 -8.61411,-0.46766 -11.84326,-3.03872c3.90271,5.37679 5.24987,11.92018 11.84326,16.36169l-0.94192,0.35036c2.4223,2.33646 5.51821,4.32423 10.90132,5.49408z" stroke-width="0" stroke="#fff" fill="#000"/>
    <path stroke="#fff" transform="rotate(-160.69337463378906 151.14582824707034,295.25085449218756) " id="svg_31" d="m133.272302,316.503382c-1.358683,2.463206 -2.30998,3.756169 -6.931848,5.047486c-0.816721,0.351942 0.271011,1.173567 0.816721,1.055737c4.076159,-1.407629 5.027426,-2.582713 6.931848,-5.165366c0.951297,3.288085 3.124862,5.401005 6.795444,6.692321l0.272839,-0.705402c5.029284,2.34863 8.834432,2.818423 12.09574,2.230821c3.12669,-0.587552 6.795434,-1.055687 9.787557,-0.703744c-1.902584,-1.291437 -2.992124,-2.818403 -3.397732,-4.695684c3.124893,-2.818312 9.241879,-1.761048 12.232174,-3.404337l-0.680286,-1.292944c6.524432,-1.877311 12.097568,-4.929726 19.844298,-3.990232l-12.776015,-7.983708l0.271001,-1.057334c-3.805148,-2.464813 -8.154147,-3.052415 -13.048834,-1.407559c1.631552,-4.109699 0,-8.569743 4.487241,-11.739877c-1.087702,-1.761099 0,-4.225942 1.902594,-6.456762c0.27287,-4.225911 1.629714,-7.982925 4.076159,-11.387292c-3.941563,2.230821 -7.881307,4.225921 -11.959305,5.987824l-0.680286,-1.29213c-1.629714,2.231554 -3.941583,3.874823 -7.068283,4.81268l-0.543851,-1.291326c-4.214432,3.639977 -9.241879,5.517258 -12.368609,10.80202c0.951297,-5.166933 -0.81669,-10.214468 -3.263105,-14.323374l-0.951287,0.822398c-1.766159,-5.048319 -8.017742,-8.33561 -11.959305,-12.444496c1.629714,11.270155 -3.128559,12.678568 -2.990316,18.901258l-1.633391,0.116192c2.311838,6.340489 -0.814882,9.275085 0.680286,13.618846c-3.805148,-1.643289 -8.699866,-0.469772 -11.961163,-3.052445c3.941563,5.401075 5.302134,11.97402 11.961163,16.435591l-0.951297,0.351942c2.446415,2.347013 5.573145,4.343761 11.009846,5.518895z" stroke-width="0" fill="#000"/>
    <path transform="rotate(114.52365112304688 282.3958435058594,347.7508544921875) " id="svg_32" d="m264.698496,368.907822c-1.34529,2.45213 -2.28721,3.73928 -6.86352,5.02479c-0.80867,0.35036 0.26834,1.16829 0.80867,1.05099c4.03598,-1.4013 4.97787,-2.5711 6.86352,-5.14214c0.94192,3.2733 3.09406,5.37672 6.72846,6.66223l0.27015,-0.70223c4.97971,2.33807 8.74735,2.80575 11.97651,2.22079c3.09587,-0.58491 6.72845,-1.05094 9.69108,-0.70058c-1.88383,-1.28563 -2.96263,-2.80573 -3.36424,-4.67457c3.09409,-2.80564 9.15078,-1.75313 12.1116,-3.38903l-0.67358,-1.28713c6.46012,-1.86887 11.97832,-4.90756 19.64869,-3.97229l-12.65008,-7.94781l0.26833,-1.05258c-3.76764,-2.45373 -8.07377,-3.03869 -12.92021,-1.40123c1.61547,-4.09122 0,-8.53121 4.44301,-11.68709c-1.07698,-1.75318 0,-4.20694 1.88384,-6.42773c0.27018,-4.20691 1.61365,-7.94703 4.03598,-11.33609c-3.90271,2.22079 -7.80362,4.20692 -11.84142,5.9609l-0.67358,-1.28632c-1.61365,2.22152 -3.90273,3.8574 -6.99861,4.79104l-0.53849,-1.28552c-4.17289,3.62361 -9.15078,5.49245 -12.24669,10.75345c0.94192,-5.1437 -0.80864,-10.16854 -3.23094,-14.25897l-0.94191,0.8187c-1.74875,-5.02562 -7.93871,-8.29813 -11.84142,-12.38854c1.61365,11.21948 -3.09772,12.62156 -2.96084,18.81627l-1.61729,0.11567c2.28905,6.31198 -0.80685,9.23338 0.67358,13.55761c-3.76764,-1.6359 -8.61411,-0.46766 -11.84326,-3.03872c3.90271,5.37679 5.24987,11.92018 11.84326,16.36169l-0.94192,0.35036c2.4223,2.33646 5.51821,4.32423 10.90132,5.49408z" stroke-width="0" stroke="#fff" fill="#000"/>
    <path transform="rotate(-158.6748504638672 174.0625,306.91754150390625) " id="svg_33" d="m156.36516,328.07449c-1.34529,2.45213 -2.28721,3.73928 -6.86352,5.02479c-0.80867,0.35036 0.26834,1.16829 0.80867,1.05099c4.03598,-1.4013 4.97787,-2.5711 6.86352,-5.14214c0.94192,3.2733 3.09406,5.37672 6.72846,6.66223l0.27015,-0.70223c4.97971,2.33807 8.74735,2.80575 11.97651,2.22079c3.09587,-0.58491 6.72845,-1.05094 9.69108,-0.70058c-1.88383,-1.28563 -2.96263,-2.80573 -3.36424,-4.67457c3.09409,-2.80564 9.15078,-1.75313 12.1116,-3.38903l-0.67358,-1.28713c6.46012,-1.86887 11.97832,-4.90756 19.64869,-3.97229l-12.65008,-7.94781l0.26833,-1.05258c-3.76764,-2.45373 -8.07377,-3.03869 -12.92021,-1.40123c1.61547,-4.09122 0,-8.53121 4.44301,-11.68709c-1.07698,-1.75318 0,-4.20694 1.88384,-6.42773c0.27018,-4.20691 1.61365,-7.94703 4.03598,-11.33609c-3.90271,2.22079 -7.80362,4.20692 -11.84142,5.9609l-0.67358,-1.28632c-1.61365,2.22152 -3.90273,3.8574 -6.99861,4.79104l-0.53849,-1.28552c-4.17289,3.62361 -9.15078,5.49245 -12.24669,10.75345c0.94192,-5.1437 -0.80864,-10.16854 -3.23094,-14.25897l-0.94191,0.8187c-1.74875,-5.02562 -7.93871,-8.29813 -11.84142,-12.38854c1.61365,11.21948 -3.09772,12.62156 -2.96084,18.81627l-1.61729,0.11567c2.28905,6.31198 -0.80685,9.23338 0.67358,13.55761c-3.76764,-1.6359 -8.61411,-0.46766 -11.84326,-3.03872c3.90271,5.37679 5.24987,11.92018 11.84326,16.36169l-0.94192,0.35036c2.4223,2.33646 5.51821,4.32423 10.90132,5.49408z" stroke-width="0" stroke="#fff" fill="#000"/>
    <path transform="rotate(-170.00279235839844 194.89585876464844,321.91754150390625) " id="svg_34" d="m177.1985,343.07449c-1.34529,2.45213 -2.28721,3.73928 -6.86352,5.02479c-0.80867,0.35036 0.26834,1.16829 0.80867,1.05099c4.03598,-1.4013 4.97787,-2.5711 6.86352,-5.14214c0.94192,3.2733 3.09406,5.37672 6.72846,6.66223l0.27015,-0.70223c4.97971,2.33807 8.74735,2.80575 11.97651,2.22079c3.09587,-0.58491 6.72845,-1.05094 9.69108,-0.70058c-1.88383,-1.28563 -2.96263,-2.80573 -3.36424,-4.67457c3.09409,-2.80564 9.15078,-1.75313 12.1116,-3.38903l-0.67358,-1.28713c6.46012,-1.86887 11.97832,-4.90756 19.64869,-3.97229l-12.65008,-7.94781l0.26833,-1.05258c-3.76764,-2.45373 -8.07377,-3.03869 -12.92021,-1.40123c1.61547,-4.09122 0,-8.53121 4.44301,-11.68709c-1.07698,-1.75318 0,-4.20694 1.88384,-6.42773c0.27018,-4.20691 1.61365,-7.94703 4.03598,-11.33609c-3.90271,2.22079 -7.80362,4.20692 -11.84142,5.9609l-0.67358,-1.28632c-1.61365,2.22152 -3.90273,3.8574 -6.99861,4.79104l-0.53849,-1.28552c-4.17289,3.62361 -9.15078,5.49245 -12.24669,10.75345c0.94192,-5.1437 -0.80864,-10.16854 -3.23094,-14.25897l-0.94191,0.8187c-1.74875,-5.02562 -7.93871,-8.29813 -11.84142,-12.38854c1.61365,11.21948 -3.09772,12.62156 -2.96084,18.81627l-1.61729,0.11567c2.28905,6.31198 -0.80685,9.23338 0.67358,13.55761c-3.76764,-1.6359 -8.61411,-0.46766 -11.84326,-3.03872c3.90271,5.37679 5.24987,11.92018 11.84326,16.36169l-0.94192,0.35036c2.4223,2.33646 5.51821,4.32423 10.90132,5.49408z" stroke-width="0" stroke="#fff" fill="#000"/>
    <path transform="rotate(-169.8792724609375 219.0625,331.91754150390625) " id="svg_35" d="m201.365155,353.074488c-1.34529,2.45213 -2.28721,3.73928 -6.86352,5.02479c-0.80867,0.35036 0.26834,1.16829 0.80867,1.05099c4.03598,-1.4013 4.97787,-2.5711 6.86352,-5.14214c0.94192,3.2733 3.09406,5.37672 6.72846,6.66223l0.27015,-0.70223c4.97971,2.33807 8.74735,2.80575 11.97651,2.22079c3.09587,-0.58491 6.72845,-1.05094 9.69108,-0.70058c-1.88383,-1.28563 -2.96263,-2.80573 -3.36424,-4.67457c3.09409,-2.80564 9.15078,-1.75313 12.1116,-3.38903l-0.67358,-1.28713c6.46012,-1.86887 11.97832,-4.90756 19.64869,-3.97229l-12.65008,-7.94781l0.26833,-1.05258c-3.76764,-2.45373 -8.07377,-3.03869 -12.92021,-1.40123c1.61547,-4.09122 0,-8.53121 4.44301,-11.68709c-1.07698,-1.75318 0,-4.20694 1.88384,-6.42773c0.27018,-4.20691 1.61365,-7.94703 4.03598,-11.33609c-3.90271,2.22079 -7.80362,4.20692 -11.84142,5.9609l-0.67358,-1.28632c-1.61365,2.22152 -3.90273,3.8574 -6.99861,4.79104l-0.53849,-1.28552c-4.17289,3.62361 -9.15078,5.49245 -12.24669,10.75345c0.94192,-5.1437 -0.80864,-10.16854 -3.23094,-14.25897l-0.94191,0.8187c-1.74875,-5.02562 -7.93871,-8.29813 -11.84142,-12.38854c1.61365,11.21948 -3.09772,12.62156 -2.96084,18.81627l-1.61729,0.11567c2.28905,6.31198 -0.80685,9.23338 0.67358,13.55761c-3.76764,-1.6359 -8.61411,-0.46766 -11.84326,-3.03872c3.90271,5.37679 5.24987,11.92018 11.84326,16.36169l-0.94192,0.35036c2.4223,2.33646 5.51821,4.32423 10.90132,5.49408z" stroke-width="0" stroke="#fff" fill="#000"/>
    <path transform="rotate(-38.17730712890625 354.0625305175781,62.75086593627926) " stroke="#fff" id="svg_36" d="m336.365168,83.907825c-1.34529,2.45213 -2.28721,3.73928 -6.86352,5.02479c-0.80867,0.35036 0.26834,1.16829 0.80867,1.05099c4.03598,-1.4013 4.97787,-2.5711 6.86352,-5.14214c0.94192,3.2733 3.09406,5.37672 6.72846,6.66223l0.27015,-0.70223c4.97971,2.33807 8.74735,2.80575 11.97651,2.22079c3.09587,-0.58491 6.72845,-1.05094 9.69108,-0.70058c-1.88383,-1.28563 -2.96263,-2.80573 -3.36424,-4.67457c3.09409,-2.80564 9.15078,-1.75313 12.1116,-3.38903l-0.67358,-1.28713c6.46012,-1.86887 11.97832,-4.90756 19.64869,-3.97229l-12.65008,-7.94781l0.26833,-1.05258c-3.76764,-2.45373 -8.07377,-3.03869 -12.92021,-1.40123c1.61547,-4.09122 0,-8.53121 4.44301,-11.68709c-1.07698,-1.75318 0,-4.20694 1.88384,-6.42773c0.27018,-4.20691 1.61365,-7.94703 4.03598,-11.33609c-3.90271,2.22079 -7.80362,4.20692 -11.84142,5.9609l-0.67358,-1.28632c-1.61365,2.22152 -3.90273,3.8574 -6.99861,4.79104l-0.53849,-1.28552c-4.17289,3.62361 -9.15078,5.49245 -12.24669,10.75345c0.94192,-5.1437 -0.80864,-10.16854 -3.23094,-14.25897l-0.94191,0.8187c-1.74875,-5.02562 -7.93871,-8.29813 -11.84142,-12.38854c1.61365,11.21948 -3.09772,12.62156 -2.96084,18.81627l-1.61729,0.11567c2.28905,6.31198 -0.80685,9.23338 0.67358,13.55761c-3.76764,-1.6359 -8.61411,-0.46766 -11.84326,-3.03872c3.90271,5.37679 5.24987,11.92018 11.84326,16.36169l-0.94192,0.35036c2.4223,2.33646 5.51821,4.32423 10.90132,5.49408z" stroke-width="0" fill="#000"/>
    <path id="svg_37" d="m223.031832,78.907822c-1.34529,2.45213 -2.28721,3.73928 -6.86352,5.02479c-0.80867,0.35036 0.26834,1.16829 0.80867,1.05099c4.03598,-1.4013 4.97787,-2.5711 6.86352,-5.14214c0.94192,3.2733 3.09406,5.37672 6.72846,6.66223l0.27015,-0.70223c4.97971,2.33807 8.74735,2.80575 11.97651,2.22079c3.09587,-0.58491 6.72845,-1.05094 9.69108,-0.70058c-1.88383,-1.28563 -2.96263,-2.80573 -3.36424,-4.67457c3.09409,-2.80564 9.15078,-1.75313 12.1116,-3.38903l-0.67358,-1.28713c6.46012,-1.86887 11.97832,-4.90756 19.64869,-3.97229l-12.65008,-7.94781l0.26833,-1.05258c-3.76764,-2.45373 -8.07377,-3.03869 -12.92021,-1.40123c1.61547,-4.09122 0,-8.53121 4.44301,-11.68709c-1.07698,-1.75318 0,-4.20694 1.88384,-6.42773c0.27018,-4.20691 1.61365,-7.94703 4.03598,-11.33609c-3.90271,2.22079 -7.80362,4.20692 -11.84142,5.9609l-0.67358,-1.28632c-1.61365,2.22152 -3.90273,3.8574 -6.99861,4.79104l-0.53849,-1.28552c-4.17289,3.62361 -9.15078,5.49245 -12.24669,10.75345c0.94192,-5.1437 -0.80864,-10.16854 -3.23094,-14.25897l-0.94191,0.8187c-1.74875,-5.02562 -7.93871,-8.29813 -11.84142,-12.38854c1.61365,11.21948 -3.09772,12.62156 -2.96084,18.81627l-1.61729,0.11567c2.28905,6.31198 -0.80685,9.23338 0.67358,13.55761c-3.76764,-1.6359 -8.61411,-0.46766 -11.84326,-3.03872c3.90271,5.37679 5.24987,11.92018 11.84326,16.36169l-0.94192,0.35036c2.4223,2.33646 5.51821,4.32423 10.90132,5.49408z" stroke-width="0" stroke="#fff" fill="#000"/>
    <path id="svg_38" d="m305.531824,76.407822c-1.34529,2.45213 -2.28721,3.73928 -6.86352,5.02479c-0.80867,0.35036 0.26834,1.16829 0.80867,1.05099c4.03598,-1.4013 4.97787,-2.5711 6.86352,-5.14214c0.94192,3.2733 3.09406,5.37672 6.72846,6.66223l0.27015,-0.70223c4.97971,2.33807 8.74735,2.80575 11.97651,2.22079c3.09587,-0.58491 6.72845,-1.05094 9.69108,-0.70058c-1.88383,-1.28563 -2.96263,-2.80573 -3.36424,-4.67457c3.09409,-2.80564 9.15078,-1.75313 12.1116,-3.38903l-0.67358,-1.28713c6.46012,-1.86887 11.97832,-4.90756 19.64869,-3.97229l-12.65008,-7.94781l0.26833,-1.05258c-3.76764,-2.45373 -8.07377,-3.03869 -12.92021,-1.40123c1.61547,-4.09122 0,-8.53121 4.44301,-11.68709c-1.07698,-1.75318 0,-4.20694 1.88384,-6.42773c0.27018,-4.20691 1.61365,-7.94703 4.03598,-11.33609c-3.90271,2.22079 -7.80362,4.20692 -11.84142,5.9609l-0.67358,-1.28632c-1.61365,2.22152 -3.90273,3.8574 -6.99861,4.79104l-0.53849,-1.28552c-4.17289,3.62361 -9.15078,5.49245 -12.24669,10.75345c0.94192,-5.1437 -0.80864,-10.16854 -3.23094,-14.25897l-0.94191,0.8187c-1.74875,-5.02562 -7.93871,-8.29813 -11.84142,-12.38854c1.61365,11.21948 -3.09772,12.62156 -2.96084,18.81627l-1.61729,0.11567c2.28905,6.31198 -0.80685,9.23338 0.67358,13.55761c-3.76764,-1.6359 -8.61411,-0.46766 -11.84326,-3.03872c3.90271,5.37679 5.24987,11.92018 11.84326,16.36169l-0.94192,0.35036c2.4223,2.33646 5.51821,4.32423 10.90132,5.49408z" stroke-width="0" stroke="#fff" fill="#000"/>
    <path id="svg_39" d="m249.698488,76.407822c-1.34529,2.45213 -2.28721,3.73928 -6.86352,5.02479c-0.80867,0.35036 0.26834,1.16829 0.80867,1.05099c4.03598,-1.4013 4.97787,-2.5711 6.86352,-5.14214c0.94192,3.2733 3.09406,5.37672 6.72846,6.66223l0.27015,-0.70223c4.97971,2.33807 8.74735,2.80575 11.97651,2.22079c3.09587,-0.58491 6.72845,-1.05094 9.69108,-0.70058c-1.88383,-1.28563 -2.96263,-2.80573 -3.36424,-4.67457c3.09409,-2.80564 9.15078,-1.75313 12.1116,-3.38903l-0.67358,-1.28713c6.46012,-1.86887 11.97832,-4.90756 19.64869,-3.97229l-12.65008,-7.94781l0.26833,-1.05258c-3.76764,-2.45373 -8.07377,-3.03869 -12.92021,-1.40123c1.61547,-4.09122 0,-8.53121 4.44301,-11.68709c-1.07698,-1.75318 0,-4.20694 1.88384,-6.42773c0.27018,-4.20691 1.61365,-7.94703 4.03598,-11.33609c-3.90271,2.22079 -7.80362,4.20692 -11.84142,5.9609l-0.67358,-1.28632c-1.61365,2.22152 -3.90273,3.8574 -6.99861,4.79104l-0.53849,-1.28552c-4.17289,3.62361 -9.15078,5.49245 -12.24669,10.75345c0.94192,-5.1437 -0.80864,-10.16854 -3.23094,-14.25897l-0.94191,0.8187c-1.74875,-5.02562 -7.93871,-8.29813 -11.84142,-12.38854c1.61365,11.21948 -3.09772,12.62156 -2.96084,18.81627l-1.61729,0.11567c2.28905,6.31198 -0.80685,9.23338 0.67358,13.55761c-3.76764,-1.6359 -8.61411,-0.46766 -11.84326,-3.03872c3.90271,5.37679 5.24987,11.92018 11.84326,16.36169l-0.94192,0.35036c2.4223,2.33646 5.51821,4.32423 10.90132,5.49408z" stroke-width="0" stroke="#fff" fill="#000"/>
   </g>
  </g>
  <ellipse stroke="#000" ry="41.5" rx="46.500002" id="svg_2" cy="199.953125" cx="252.999998" stroke-width="1.5" fill="#fff"/>
  <ellipse stroke="#000" ry="39.000001" rx="43.5" id="svg_3" cy="200.453124" cx="355" stroke-width="1.5" fill="#fff"/>
  <ellipse ry="14" rx="14.5" id="svg_4" cy="200.619792" cx="253.833334" stroke-width="1.5" stroke="#fff" fill="#000"/>
  <ellipse ry="13" rx="13" id="svg_5" cy="199.453125" cx="354.666666" stroke-width="1.5" stroke="#fff" fill="#000"/>
 </g>
</svg>